{"title":"Coraline.2009.BRRip.XviD.AC3-ViSiON [12 sub]","uid":5773240,"size":1777039049,"categoryP":"video","categoryS":"movies","magnet":"?xt=urn:btih:5fd97deb7740bd2971ee1cb5bf3f0030ea9e7ea5&amp;dn=Coraline.2009.BRRip.XviD.AC3-ViSiON+%5B12+sub%5D&amp;tr=udp%3A%2F%2Ftracker.openbittorrent.com%3A80&amp;tr=udp%3A%2F%2Fopen.demonii.com%3A1337&amp;tr=udp%3A%2F%2Ftracker.coppersurfer.tk%3A6969&amp;tr=udp%3A%2F%2Fexodus.desync.com%3A6969","seeders":0,"leechers":0,"uploader":"gibresh","files":-1,"time":1282176731,"description":"Title...........Coraline\nYear............2009\nCast (voices)...Dakota Fanning, Teri Hatcher, Ian McShane, Keith David\nDirector........Henry Selick\nMusic...........Bruno Coulais (The Chorus/Les choristes 2004)\n\n\nLanguage........English\nsubtitle........English, Hebrew, Swedish, Danish, Finnish, French, Spanish,\n                Italian, Dutch, Portugeses, Greek, Turkish\n\nInclude.........sample\n\n\nGeneral:\nFormat                           : AVI\nFormat/Info                      : Audio Video Interleave\nFile size                        : 1.64 GiB\nDuration                         : 1h 40mn\nOverall bit rate                 : 2 338 Kbps\n\nVideo:\nID                               : 0\nFormat                           : MPEG-4 Visual\nCodec ID                         : XVID\nCodec ID/Hint                    : XviD\nDuration                         : 1h 40mn\nBit rate                         : 1 880 Kbps\nWidth                            : 720 pixels\nHeight                           : 400 pixels\nDisplay aspect ratio             : 16:9\nFrame rate                       : 23.976 fps\nScan type                        : Progressive\nBits/(Pixel*Frame)               : 0.272\nStream size                      : 1.32 GiB (80%)\nWriting library                  : XviD 1.2.1 (UTC 2008-12-04)\n\nAudio:\nID                               : 1\nFormat                           : AC-3\nFormat/Info                      : Audio Coding 3\nDuration                         : 1h 40mn\nBit rate                         : 448 Kbps\nChannel(s)                       : 6 channels\nChannel positions                : Front: L C R, Side: L R, LFE\nSampling rate                    : 48.0 KHz\nStream size                      : 322 MiB (19%)\n\n","torrent":{"xt":"urn:btih:5fd97deb7740bd2971ee1cb5bf3f0030ea9e7ea5","amp;dn":"Coraline.2009.BRRip.XviD.AC3-ViSiON+%5B12+sub%5D","amp;tr":["udp%3A%2F%2Ftracker.openbittorrent.com%3A80","udp%3A%2F%2Fopen.demonii.com%3A1337","udp%3A%2F%2Ftracker.coppersurfer.tk%3A6969","udp%3A%2F%2Fexodus.desync.com%3A6969"],"infoHash":"5fd97deb7740bd2971ee1cb5bf3f0030ea9e7ea5","infoHashBuffer":{"type":"Buffer","data":[95,217,125,235,119,64,189,41,113,238,28,181,191,63,0,48,234,158,126,165]},"announce":[],"urlList":[]}}